<svg width="10" height="10" viewBox="0 0 10 10" fill="none" xmlns="http://www.w3.org/2000/svg">
<path d="M8.41317 9.81645L9.81645 8.41317C10.0612 8.16845 10.0612 7.77532 9.81645 7.53059L7.28586 5L9.81645 2.46941C10.0612 2.22468 10.0612 1.83155 9.81645 1.58683L8.41317 0.183546C8.16845 -0.061182 7.77532 -0.061182 7.53059 0.183546L5 2.71414L2.46941 0.183546C2.22468 -0.061182 1.83155 -0.061182 1.58683 0.183546L0.183546 1.58683C-0.061182 1.83155 -0.061182 2.22468 0.183546 2.46941L2.71414 5L0.183546 7.53059C-0.061182 7.77532 -0.061182 8.16845 0.183546 8.41317L1.58683 9.81645C1.83155 10.0612 2.22468 10.0612 2.46941 9.81645L5 7.28586L7.53059 9.81645C7.77271 10.0586 8.16845 10.0586 8.41317 9.81645Z" fill="#81E6D9"/>
</svg>
