<svg width="124" height="124" viewBox="0 0 124 124" fill="none" xmlns="http://www.w3.org/2000/svg">
<g opacity="0.75">
<path d="M35.2639 58.8227L22.2713 45.8301C20.5855 44.1443 17.8524 44.1443 16.1667 45.8301L3.17405 58.8227C1.48833 60.5085 1.48833 63.2416 3.17405 64.9273L16.1667 77.92C17.8524 79.6057 20.5855 79.6057 22.2713 77.92L35.2639 64.9273C36.9497 63.2416 36.9497 60.5085 35.2639 58.8227Z" fill="#3182CE"/>
<path d="M21.9177 46.1836L34.9104 59.1763C36.4008 60.6667 36.4008 63.0833 34.9104 64.5737L21.9177 77.5664C20.4273 79.0569 18.0107 79.0569 16.5203 77.5664L3.5276 64.5737C2.03714 63.0833 2.03714 60.6667 3.5276 59.1763L16.5203 46.1836C18.0107 44.6932 20.4273 44.6932 21.9177 46.1836Z" stroke="black" stroke-opacity="0.2"/>
<path d="M56.6529 80.2116L43.6602 67.219C41.9745 65.5332 39.2414 65.5332 37.5556 67.219L24.563 80.2116C22.8772 81.8974 22.8772 84.6305 24.563 86.3162L37.5556 99.3089C39.2414 100.995 41.9745 100.995 43.6602 99.3089L56.6529 86.3162C58.3386 84.6305 58.3386 81.8974 56.6529 80.2116Z" fill="#3182CE"/>
<path d="M43.3066 67.5725L56.2993 80.5652C57.7898 82.0556 57.7898 84.4722 56.2993 85.9626L43.3066 98.9553C41.8162 100.446 39.3997 100.446 37.9092 98.9553L24.9165 85.9626C23.4261 84.4722 23.4261 82.0556 24.9165 80.5652L37.9092 67.5725C39.3997 66.0821 41.8162 66.0821 43.3066 67.5725Z" stroke="black" stroke-opacity="0.2"/>
<path d="M78.0418 101.601L65.0491 88.6078C63.3634 86.9221 60.6303 86.9221 58.9445 88.6078L45.9519 101.601C44.2662 103.286 44.2662 106.019 45.9519 107.705L58.9446 120.698C60.6303 122.383 63.3634 122.383 65.0491 120.698L78.0418 107.705C79.7275 106.019 79.7275 103.286 78.0418 101.601Z" fill="#2B6CB0"/>
<path d="M64.6955 88.9614L77.6882 101.954C79.1787 103.445 79.1787 105.861 77.6882 107.352L64.6956 120.344C63.2051 121.835 60.7886 121.835 59.2981 120.344L46.3054 107.351C44.815 105.861 44.815 103.445 46.3054 101.954L59.2981 88.9614C60.7886 87.4709 63.2051 87.4709 64.6955 88.9614Z" stroke="black" stroke-opacity="0.2"/>
<path d="M56.6529 37.4338L43.6602 24.4412C41.9745 22.7555 39.2414 22.7555 37.5556 24.4412L24.563 37.4338C22.8772 39.1196 22.8772 41.8527 24.563 43.5384L37.5556 56.5311C39.2414 58.2168 41.9745 58.2168 43.6602 56.5311L56.6529 43.5384C58.3386 41.8527 58.3386 39.1196 56.6529 37.4338Z" fill="#90CDF4"/>
<path d="M43.3066 24.7947L56.2993 37.7874C57.7898 39.2779 57.7898 41.6944 56.2993 43.1848L43.3066 56.1775C41.8162 57.668 39.3997 57.668 37.9092 56.1775L24.9165 43.1848C23.4261 41.6944 23.4261 39.2779 24.9165 37.7874L37.9092 24.7947C39.3997 23.3043 41.8162 23.3043 43.3066 24.7947Z" stroke="black" stroke-opacity="0.2"/>
<path d="M78.0418 58.8227L65.0491 45.8301C63.3634 44.1443 60.6303 44.1443 58.9445 45.8301L45.9519 58.8227C44.2662 60.5085 44.2662 63.2416 45.9519 64.9273L58.9446 77.92C60.6303 79.6057 63.3634 79.6057 65.0491 77.92L78.0418 64.9273C79.7275 63.2416 79.7275 60.5085 78.0418 58.8227Z" fill="#3182CE"/>
<path d="M64.6955 46.1836L77.6882 59.1763C79.1787 60.6667 79.1787 63.0833 77.6882 64.5737L64.6956 77.5664C63.2051 79.0569 60.7886 79.0569 59.2981 77.5664L46.3054 64.5737C44.815 63.0833 44.815 60.6667 46.3054 59.1763L59.2981 46.1836C60.7886 44.6932 63.2051 44.6932 64.6955 46.1836Z" stroke="black" stroke-opacity="0.2"/>
<path d="M99.4307 80.2116L86.438 67.219C84.7523 65.5332 82.0192 65.5332 80.3335 67.219L67.3408 80.2116C65.6551 81.8974 65.6551 84.6305 67.3408 86.3162L80.3335 99.3089C82.0192 100.995 84.7523 100.995 86.438 99.3089L99.4307 86.3162C101.116 84.6305 101.116 81.8974 99.4307 80.2116Z" fill="#3182CE"/>
<path d="M86.0845 67.5725L99.0771 80.5652C100.568 82.0556 100.568 84.4722 99.0771 85.9626L86.0845 98.9553C84.594 100.446 82.1775 100.446 80.687 98.9553L67.6944 85.9626C66.2039 84.4722 66.2039 82.0556 67.6944 80.5652L80.687 67.5725C82.1775 66.0821 84.594 66.0821 86.0845 67.5725Z" stroke="black" stroke-opacity="0.2"/>
<path d="M78.0418 16.0449L65.0491 3.05228C63.3634 1.36655 60.6303 1.36655 58.9445 3.05228L45.9519 16.0449C44.2662 17.7307 44.2662 20.4638 45.9519 22.1495L58.9446 35.1422C60.6303 36.8279 63.3634 36.8279 65.0491 35.1422L78.0418 22.1495C79.7275 20.4638 79.7275 17.7307 78.0418 16.0449Z" fill="#BEE3F8"/>
<path d="M64.6955 3.40583L77.6882 16.3985C79.1787 17.889 79.1787 20.3055 77.6882 21.7959L64.6955 34.7886C63.2051 36.2791 60.7886 36.2791 59.2981 34.7886L46.3054 21.7959C44.815 20.3055 44.815 17.889 46.3054 16.3985L59.2981 3.40583C60.7886 1.91537 63.2051 1.91537 64.6955 3.40583Z" stroke="black" stroke-opacity="0.2"/>
<path d="M99.4307 37.4338L86.438 24.4412C84.7523 22.7555 82.0192 22.7555 80.3335 24.4412L67.3408 37.4338C65.6551 39.1196 65.6551 41.8527 67.3408 43.5384L80.3335 56.5311C82.0192 58.2168 84.7523 58.2168 86.438 56.5311L99.4307 43.5384C101.116 41.8527 101.116 39.1196 99.4307 37.4338Z" fill="#63B3ED"/>
<path d="M86.0845 24.7947L99.0771 37.7874C100.568 39.2779 100.568 41.6944 99.0771 43.1848L86.0845 56.1775C84.594 57.668 82.1775 57.668 80.687 56.1775L67.6944 43.1848C66.2039 41.6944 66.2039 39.2779 67.6944 37.7874L80.687 24.7947C82.1775 23.3043 84.594 23.3043 86.0845 24.7947Z" stroke="black" stroke-opacity="0.2"/>
<path d="M120.82 58.8227L107.827 45.8301C106.141 44.1443 103.408 44.1443 101.722 45.8301L88.7297 58.8227C87.044 60.5085 87.044 63.2416 88.7297 64.9273L101.722 77.92C103.408 79.6057 106.141 79.6057 107.827 77.92L120.82 64.9273C122.505 63.2416 122.505 60.5085 120.82 58.8227Z" fill="#3182CE"/>
<path d="M107.473 46.1836L120.466 59.1763C121.957 60.6667 121.957 63.0833 120.466 64.5737L107.473 77.5664C105.983 79.0569 103.566 79.0569 102.076 77.5664L89.0833 64.5737C87.5928 63.0833 87.5928 60.6667 89.0833 59.1763L102.076 46.1836C103.566 44.6932 105.983 44.6932 107.473 46.1836Z" stroke="black" stroke-opacity="0.2"/>
</g>
</svg>
