<svg width="293" height="102" viewBox="0 0 293 102" fill="none" xmlns="http://www.w3.org/2000/svg">
<path d="M50.195 8.30879L36.8134 1.75919C34.8292 0.788021 32.4333 1.60926 31.4622 3.59348L24.9126 16.9751C23.9414 18.9593 24.7626 21.3551 26.7469 22.3263L40.1285 28.8759C42.1127 29.8471 44.5085 29.0258 45.4797 27.0416L52.0293 13.66C53.0005 11.6758 52.1792 9.27996 50.195 8.30879Z" fill="#BEE3F8"/>
<path d="M49.9751 8.75793L36.5935 2.20833C34.8573 1.35856 32.761 2.07714 31.9112 3.81333L25.3616 17.195C24.5118 18.9312 25.2304 21.0275 26.9666 21.8773L40.3482 28.4269C42.0844 29.2766 44.1807 28.5581 45.0305 26.8219L51.5801 13.4402C52.4299 11.704 51.7113 9.6077 49.9751 8.75793Z" stroke="black" stroke-opacity="0.2"/>
<path d="M38.6177 31.9604L25.2361 25.4108C23.2519 24.4396 20.856 25.2609 19.8849 27.2451L13.3353 40.6267C12.3641 42.6109 13.1853 45.0068 15.1696 45.9779L28.5512 52.5275C30.5354 53.4987 32.9312 52.6775 33.9024 50.6932L40.452 37.3116C41.4232 35.3274 40.6019 32.9316 38.6177 31.9604Z" fill="#90CDF4"/>
<path d="M38.3979 32.4095L25.0163 25.8599C23.2801 25.0102 21.1838 25.7288 20.334 27.4649L13.7844 40.8466C12.9346 42.5828 13.6532 44.6791 15.3894 45.5289L28.771 52.0785C30.5072 52.9282 32.6035 52.2097 33.4533 50.4735L40.0029 37.0918C40.8527 35.3557 40.1341 33.2593 38.3979 32.4095Z" stroke="black" stroke-opacity="0.2"/>
<path d="M27.041 55.6127L13.6594 49.0631C11.6752 48.092 9.27935 48.9132 8.30818 50.8974L1.75858 64.2791C0.787413 66.2633 1.60865 68.6591 3.59287 69.6303L16.9745 76.1799C18.9587 77.151 21.3545 76.3298 22.3257 74.3456L28.8753 60.964C29.8465 58.9797 29.0252 56.5839 27.041 55.6127Z" fill="#3182CE"/>
<path d="M26.8212 56.0619L13.4396 49.5123C11.7034 48.6625 9.60706 49.3811 8.75729 51.1173L2.20768 64.4989C1.35791 66.2351 2.07649 68.3314 3.81269 69.1812L17.1943 75.7308C18.9305 76.5806 21.0268 75.862 21.8766 74.1258L28.4262 60.7442C29.276 59.008 28.5574 56.9117 26.8212 56.0619Z" stroke="black" stroke-opacity="0.2"/>
<path d="M73.8464 19.8847L60.4648 13.3351C58.4806 12.3639 56.0848 13.1852 55.1136 15.1694L48.564 28.551C47.5928 30.5353 48.414 32.9311 50.3983 33.9022L63.7799 40.4518C65.7641 41.423 68.1599 40.6018 69.1311 38.6176L75.6807 25.2359C76.6519 23.2517 75.8306 20.8559 73.8464 19.8847Z" fill="#63B3ED"/>
<path d="M73.6266 20.3339L60.245 13.7843C58.5088 12.9345 56.4125 13.6531 55.5627 15.3893L49.0131 28.7709C48.1633 30.5071 48.8819 32.6034 50.6181 33.4532L63.9997 40.0028C65.7359 40.8526 67.8322 40.134 68.682 38.3978L75.2316 25.0162C76.0814 23.28 75.3628 21.1836 73.6266 20.3339Z" stroke="black" stroke-opacity="0.2"/>
<path d="M62.2698 43.5368L48.8882 36.9872C46.904 36.016 44.5081 36.8373 43.537 38.8215L36.9874 52.2031C36.0162 54.1874 36.8374 56.5832 38.8217 57.5543L52.2033 64.1039C54.1875 65.0751 56.5833 64.2539 57.5545 62.2697L64.1041 48.888C65.0753 46.9038 64.254 44.508 62.2698 43.5368Z" fill="#3182CE"/>
<path d="M62.05 43.986L48.6684 37.4364C46.9322 36.5866 44.8359 37.3052 43.9861 39.0414L37.4365 52.423C36.5867 54.1592 37.3053 56.2555 39.0415 57.1053L52.4231 63.6549C54.1593 64.5047 56.2556 63.7861 57.1054 62.0499L63.655 48.6683C64.5048 46.9321 63.7862 44.8357 62.05 43.986Z" stroke="black" stroke-opacity="0.2"/>
<path d="M50.6933 67.1894L37.3117 60.6398C35.3275 59.6686 32.9316 60.4899 31.9605 62.4741L25.4109 75.8557C24.4397 77.8399 25.2609 80.2358 27.2452 81.2069L40.6268 87.7565C42.611 88.7277 45.0068 87.9065 45.978 85.9222L52.5276 72.5406C53.4988 70.5564 52.6775 68.1606 50.6933 67.1894Z" fill="#3182CE"/>
<path d="M50.4734 67.6385L37.0918 61.0889C35.3556 60.2392 33.2593 60.9578 32.4095 62.6939L25.8599 76.0756C25.0101 77.8118 25.7287 79.9081 27.4649 80.7579L40.8465 87.3075C42.5827 88.1573 44.679 87.4387 45.5288 85.7025L52.0784 72.3208C52.9282 70.5847 52.2096 68.4883 50.4734 67.6385Z" stroke="black" stroke-opacity="0.2"/>
<path d="M97.4986 31.4611L84.117 24.9115C82.1328 23.9404 79.7369 24.7616 78.7658 26.7458L72.2162 40.1275C71.245 42.1117 72.0662 44.5075 74.0505 45.4787L87.4321 52.0283C89.4163 52.9994 91.8121 52.1782 92.7833 50.194L99.3329 36.8123C100.304 34.8281 99.4828 32.4323 97.4986 31.4611Z" fill="#3182CE"/>
<path d="M97.2788 31.9103L83.8972 25.3607C82.161 24.5109 80.0647 25.2295 79.2149 26.9657L72.6653 40.3473C71.8155 42.0835 72.5341 44.1798 74.2703 45.0296L87.6519 51.5792C89.3881 52.429 91.4844 51.7104 92.3342 49.9742L98.8838 36.5926C99.7336 34.8564 99.015 32.76 97.2788 31.9103Z" stroke="black" stroke-opacity="0.2"/>
<path d="M85.922 55.1135L72.5404 48.5639C70.5562 47.5927 68.1603 48.4139 67.1892 50.3982L60.6396 63.7798C59.6684 65.764 60.4896 68.1598 62.4739 69.131L75.8555 75.6806C77.8397 76.6518 80.2355 75.8305 81.2067 73.8463L87.7563 60.4647C88.7275 58.4805 87.9062 56.0846 85.922 55.1135Z" fill="#3182CE"/>
<path d="M85.7022 55.5626L72.3206 49.013C70.5844 48.1632 68.4881 48.8818 67.6383 50.618L61.0887 63.9997C60.2389 65.7358 60.9575 67.8322 62.6937 68.682L76.0753 75.2316C77.8115 76.0813 79.9078 75.3627 80.7576 73.6266L87.3072 60.2449C88.157 58.5087 87.4384 56.4124 85.7022 55.5626Z" stroke="black" stroke-opacity="0.2"/>
<path d="M74.3454 78.7656L60.9638 72.216C58.9796 71.2448 56.5837 72.066 55.6126 74.0503L49.063 87.4319C48.0918 89.4161 48.913 91.8119 50.8973 92.7831L64.2789 99.3327C66.2631 100.304 68.6589 99.4826 69.6301 97.4984L76.1797 84.1168C77.1509 82.1326 76.3296 79.7367 74.3454 78.7656Z" fill="#2B6CB0"/>
<path d="M74.1256 79.2147L60.744 72.6651C59.0078 71.8153 56.9114 72.5339 56.0617 74.2701L49.5121 87.6517C48.6623 89.3879 49.3809 91.4843 51.1171 92.3341L64.4987 98.8837C66.2349 99.7334 68.3312 99.0148 69.181 97.2787L75.7306 83.897C76.5804 82.1608 75.8618 80.0645 74.1256 79.2147Z" stroke="black" stroke-opacity="0.2"/>
<path d="M33.3118 68H40.6946V57.5447H44.483L50.0611 68H58.1151L51.7763 56.3665C55.1321 54.8452 57.071 51.8473 57.071 47.6264C57.071 41.3473 52.7905 37.4545 45.9297 37.4545H33.3118V68ZM40.6946 51.728V43.4055H44.3338C47.6449 43.4055 49.4197 44.7926 49.4197 47.6264C49.4197 50.4602 47.6449 51.728 44.3338 51.728H40.6946ZM79.2245 37.4545V57.3509C79.2245 60.1101 76.9724 61.8849 73.6315 61.8849C70.3204 61.8849 68.0832 60.1101 68.0832 57.3509V37.4545H60.7004V57.6342C60.7004 64.5845 65.8907 68.3878 73.6315 68.3878C81.3126 68.3878 86.5477 64.5845 86.5477 57.6342V37.4545H79.2245ZM90.755 68H104.462C111.218 68 115.096 64.3906 115.096 59.4538C115.096 55.0391 111.889 52.2649 108.19 52.1009V51.8026C111.546 51.1016 113.903 48.6705 113.903 45.1804C113.903 40.5717 110.353 37.4545 103.492 37.4545H90.755V68ZM98.1378 62.049V54.7706H102.836C105.655 54.7706 107.385 56.2621 107.385 58.6037C107.385 60.7663 105.893 62.049 102.702 62.049H98.1378ZM98.1378 50.0128V43.3161H102.344C104.805 43.3161 106.371 44.5838 106.371 46.6122C106.371 48.7599 104.641 50.0128 102.224 50.0128H98.1378ZM125.608 37.4545H118.226V68H125.608V37.4545ZM129.823 68H137.206V59.7223L140.159 55.9936L147.766 68H156.595L145.573 51.0866L156.401 37.4545H147.706L137.609 50.3707H137.206V37.4545H129.823V68ZM175.076 46.6122H182.146C182.086 40.8999 177.537 37.0369 170.437 37.0369C163.457 37.0369 158.431 40.8402 158.476 46.5227C158.461 51.1612 161.712 53.7713 166.992 54.9794L170.184 55.7251C173.54 56.5007 175.046 57.4105 175.076 59.1257C175.046 60.9901 173.301 62.2876 170.333 62.2876C167.067 62.2876 164.919 60.7663 164.755 57.8281H157.685C157.775 64.9723 162.741 68.3878 170.423 68.3878C178.029 68.3878 182.533 64.9425 182.563 59.1406C182.533 54.2635 179.237 51.2805 173.212 49.9531L170.587 49.3565C167.812 48.7599 166.053 47.8352 166.112 46.0156C166.127 44.3452 167.559 43.1371 170.423 43.1371C173.301 43.1371 174.882 44.4347 175.076 46.6122ZM185.872 37.4545V68H193.061V49.1328H193.314L200.652 67.8061H205.246L212.584 49.2372H212.838V68H220.027V37.4545H210.884L203.128 56.3665H202.77L195.015 37.4545H185.872ZM231.594 37.4545H224.212V68H231.594V37.4545ZM261.806 37.4545H254.438V55.054H254.184L242.163 37.4545H235.809V68H243.192V50.3707H243.386L255.541 68H261.806V37.4545ZM277.318 68C286.625 68 292.397 62.2578 292.397 52.7124C292.397 43.1818 286.625 37.4545 277.303 37.4545H266.028V68H277.318ZM273.411 61.706V43.7486H276.931C282.181 43.7486 284.999 46.1349 284.999 52.7124C284.999 59.3196 282.181 61.706 277.035 61.706H273.411Z" fill="#EDF2F7"/>
</svg>
