<svg width="11" height="11" viewBox="0 0 11 11" fill="none" xmlns="http://www.w3.org/2000/svg">
<path d="M7.89995 4.08065H10.8147C10.9354 4.53349 11 5.00917 11 5.5C11 5.99083 10.9354 6.46651 10.8147 6.91935H7.89995C8.01425 5.96464 8.00948 4.99555 7.89995 4.08065ZM3.93016 7.62903C4.16697 8.81952 4.66585 10.1243 5.48535 10.9998C5.49025 10.9998 5.49511 11 5.50001 11C5.50491 11 5.50977 10.9998 5.51467 10.9998C6.3355 10.1229 6.8335 8.81725 7.06987 7.62903H3.93016ZM7.79192 3.37097H10.5726C9.86458 1.68602 8.34157 0.428135 6.49689 0.090373C7.16749 1.04666 7.57961 2.22677 7.79192 3.37097ZM7.18537 4.08065H3.81466C3.69625 5.01019 3.69612 5.98872 3.81466 6.91935H7.18539C7.30379 5.98979 7.30393 5.01128 7.18537 4.08065ZM3.2081 7.62903H0.427382C1.13542 9.31398 2.65843 10.5719 4.50311 10.9096C3.83233 9.95298 3.42034 8.77283 3.2081 7.62903ZM7.79192 7.62903C7.57957 8.7735 7.16734 9.95354 6.49689 10.9096C8.34157 10.5719 9.86458 9.31398 10.5726 7.62903H7.79192ZM7.06987 3.37097C6.83305 2.18048 6.33415 0.875698 5.51467 0.000177428C5.50977 0.000177428 5.50491 0 5.50001 0C5.49511 0 5.49025 0.000177428 5.48535 0.000177428C4.66452 0.877139 4.16652 2.18275 3.93016 3.37097H7.06987ZM0.185293 4.08065C0.0646473 4.53349 0 5.00917 0 5.5C0 5.99083 0.0646473 6.46651 0.185293 6.91935H3.10008C2.99054 6.00445 2.98577 5.03536 3.10008 4.08065H0.185293ZM3.2081 3.37097C3.42045 2.22657 3.83264 1.04655 4.50313 0.090373C2.65846 0.428135 1.13544 1.68602 0.427382 3.37097H3.2081Z" fill="#63B3ED"/>
</svg>
