<svg width="12" height="12" viewBox="0 0 12 12" fill="none" xmlns="http://www.w3.org/2000/svg">
<circle cx="6" cy="6" r="5.8" stroke="#90CDF4" stroke-width="0.4"/>
<path d="M6.00535 3C5.09808 3 4.51043 3.38324 4.04907 4.06671C3.96537 4.1907 3.99118 4.36069 4.10792 4.45195L4.59826 4.83526C4.71617 4.92743 4.88393 4.90588 4.97624 4.78665C5.26096 4.41891 5.47216 4.20717 5.91691 4.20717C6.26659 4.20717 6.69912 4.43919 6.69912 4.78879C6.69912 5.05307 6.4875 5.18879 6.14223 5.38836C5.73959 5.6211 5.20676 5.91074 5.20676 6.6353V6.75C5.20676 6.90533 5.3289 7.03125 5.47956 7.03125H6.30332C6.45398 7.03125 6.57612 6.90533 6.57612 6.75V6.68235C6.57612 6.18008 8 6.15916 8 4.8C8.00001 3.77644 6.97017 3 6.00535 3ZM5.89145 7.37647C5.45729 7.37647 5.10407 7.74063 5.10407 8.18824C5.10407 8.63584 5.45729 9 5.89145 9C6.32561 9 6.67883 8.63584 6.67883 8.18823C6.67883 7.74062 6.32561 7.37647 5.89145 7.37647Z" fill="#90CDF4"/>
</svg>
