<svg width="47" height="36" viewBox="0 0 47 36" fill="none" xmlns="http://www.w3.org/2000/svg">
<path d="M45.8984 30C46.5043 30 47 30.5063 47 31.125V34.875C47 35.4937 46.5043 36 45.8984 36H1.10156C0.495703 36 0 35.4937 0 34.875V1.125C0 0.50625 0.495703 0 1.10156 0H4.77344C5.3793 0 5.875 0.50625 5.875 1.125V30H45.8984ZM17.625 25.875V19.125C17.625 18.5063 17.1293 18 16.5234 18H12.8516C12.2457 18 11.75 18.5063 11.75 19.125V25.875C11.75 26.4937 12.2457 27 12.8516 27H16.5234C17.1293 27 17.625 26.4937 17.625 25.875ZM35.25 25.875V13.125C35.25 12.5063 34.7543 12 34.1484 12H30.4766C29.8707 12 29.375 12.5063 29.375 13.125V25.875C29.375 26.4937 29.8707 27 30.4766 27H34.1484C34.7543 27 35.25 26.4937 35.25 25.875ZM26.4375 25.875V7.125C26.4375 6.50625 25.9418 6 25.3359 6H21.6641C21.0582 6 20.5625 6.50625 20.5625 7.125V25.875C20.5625 26.4937 21.0582 27 21.6641 27H25.3359C25.9418 27 26.4375 26.4937 26.4375 25.875ZM44.0625 25.875V4.125C44.0625 3.50625 43.5668 3 42.9609 3H39.2891C38.6832 3 38.1875 3.50625 38.1875 4.125V25.875C38.1875 26.4937 38.6832 27 39.2891 27H42.9609C43.5668 27 44.0625 26.4937 44.0625 25.875Z" fill="#2C5282"/>
</svg>
