<svg width="58" height="71" viewBox="0 0 58 71" fill="none" xmlns="http://www.w3.org/2000/svg">
<path d="M57.9965 42.1562C57.9965 58.0896 45.017 71 28.9983 71C12.9795 71 0 58.0896 0 42.1562C0 27.7344 10.6373 15.7809 24.537 13.6592V8.875H20.6334C19.7132 8.875 18.9604 8.12617 18.9604 7.21094V1.66406C18.9604 0.748828 19.7132 0 20.6334 0H37.3631C38.2833 0 39.0361 0.748828 39.0361 1.66406V7.21094C39.0361 8.12617 38.2833 8.875 37.3631 8.875H33.4595V13.6592C38.6876 14.4635 43.4556 16.6545 47.3592 19.8439L51.1931 16.0305C51.8483 15.3787 52.9079 15.3787 53.5631 16.0305L57.5086 19.9549C58.1638 20.6066 58.1638 21.6605 57.5086 22.3123L53.4098 26.3893L53.3261 26.4725C56.2817 30.9654 57.9965 36.3598 57.9965 42.1562ZM33.4595 47.1484V26.1396C33.4595 25.2244 32.7067 24.4756 31.7866 24.4756H26.21C25.2898 24.4756 24.537 25.2244 24.537 26.1396V47.1484C24.537 48.0637 25.2898 48.8125 26.21 48.8125H31.7866C32.7067 48.8125 33.4595 48.0637 33.4595 47.1484Z" fill="#2C5282"/>
</svg>
