<svg version="1" xmlns="http://www.w3.org/2000/svg" width="488" height="488" viewBox="0 0 366.000000 366.000000"><path d="M177.2 8.1c-4.5 2.8-43 42.2-44.1 45-.5 1.5-.8 3.5-.6 4.5.2 1.1.4 2.7.4 3.6.1 1.7 39.1 41.6 44.1 45.1 3.4 2.4 10.1 2.2 13.4-.4 6.1-4.8 42.7-42.4 43.2-44.3 1.2-4.8 1.1-6.2-.7-9.6-.9-1.9-11.1-12.8-22.6-24.1-20.7-20.6-22.5-22-28.6-21.7-.9.1-3 .9-4.5 1.9zM114.2 71.1c-1.5.9-12 11.1-23.4 22.6-14.8 14.9-20.8 21.6-21 23.4 0 1.3-.2 3.1-.3 3.9 0 .8.4 2.6.9 4 1.2 2.8 40.9 43.1 44.3 44.8 1.2.7 4 1.2 6.2 1.2 4.9 0 5.2-.2 29.7-24.8 13.3-13.4 19.7-20.4 20.2-22.5 1.8-7 1.1-8-21.6-30.9-13.7-13.9-22.7-22.1-24.6-22.8-4.1-1.3-7.2-.9-10.4 1.1zM241.5 70.4c-4.9 2.3-44.3 42.5-45.5 46.5-1.9 6.6-.8 8.2 20.3 29.4 11.1 11.1 21.4 21.2 23.1 22.4 3.2 2.4 7.8 2.9 12 1.3 2.7-1 41.2-38.8 43.9-43.1 1.5-2.4 2-5.1 1.8-9.8-.1-3-41-44.6-45.8-46.7-4-1.7-5.9-1.7-9.8 0zM52.5 133.4c-1.6.8-12.5 11-24.1 22.7-21.3 21.5-23.1 23.9-22 29.4.3 1.1.5 2.4.5 2.9.1 1.3 38 39.4 42.5 42.7 4.5 3.4 10.2 3.8 14.2 1.2 2.7-1.7 37.3-36 41.9-41.4 2.9-3.5 3.4-9.3 1.1-13.7-1.9-3.5-42.9-44.2-44.7-44.3-.8 0-2.5-.2-3.9-.4-1.4-.3-3.8.2-5.5.9zM177.4 134c-4.6 2.9-43.2 42.2-44.3 45.1-.5 1.5-.8 3.5-.6 4.5.2 1.1.4 2.7.4 3.7.1 1.7 39.2 41.7 44.1 45 3.2 2.2 9.8 2.2 13.1-.1 1.4-.9 11.6-10.8 22.7-21.9 14.4-14.5 20.4-21.2 21-23.5 1.8-7.1 1.1-8.1-20.2-29.6-11-11.2-21.3-21.2-22.8-22.3-3.8-2.8-9.9-3.2-13.4-.9zM304.5 133.5c-3.8 1.6-44.1 42.1-45.3 45.5-.5 1.4-.8 3.6-.6 5 .1 1.4.3 3.1.3 3.7.1 1.6 42.1 43.7 45.2 45.4 2.8 1.4 8.1 1.4 11-.1 1.1-.6 11.3-10.4 22.6-21.7 23.4-23.4 24.7-25.3 21.5-33.3-1.3-3.1-43.2-45-45.3-45.1-.7-.1-2.5-.3-3.9-.4-1.4-.2-3.8.3-5.5 1zM115.5 196.4c-3.8 1.8-44.1 42.3-45.3 45.6-1.3 3.7-.6 8.6 1.6 11.7 1.1 1.6 11 11.6 21.9 22.5 21 20.8 23.3 22.4 30.1 20.6 2.3-.6 8.9-6.5 23.5-21.1 11.2-11.1 21.1-21.4 22.1-22.9 2.1-3.2 2.3-8.5.6-11.9-2.1-4.1-41.3-42.9-44.9-44.5-4.1-1.7-5.7-1.7-9.6 0zM241.4 196.5c-3.5 1.5-45.4 43.5-45.5 45.6 0 .7-.2 2.3-.5 3.4-.2 1.1.2 3.3.8 5 1.3 3.2 40.7 43.3 44.5 45.4 3.4 1.8 8.8 1.6 11.8-.3 3.4-2.2 42-40.8 43.3-43.3 1-1.8 1.5-5.9 1.3-9.7-.1-1.9-40.9-43.8-44.6-45.8-2.9-1.6-7.8-1.7-11.1-.3zM178.3 259.6c-3.7 1.6-43.9 42.1-45.2 45.5-.5 1.5-.8 3.5-.6 4.5.2 1.1.4 2.8.4 3.8.1 2.6 40.6 43.4 45.3 45.5 7.8 3.6 8.7 3 32.2-20.3 11.7-11.7 21.9-22.3 22.6-23.5 1.6-3.2 1.5-8.2-.3-11.7-1.9-3.7-42.9-44.4-44.8-44.5-.8-.1-2.6-.2-4.1-.3-1.4-.2-3.9.3-5.5 1z"/></svg>